PathFileType	4	(X/Y/Z)	C:/Users/opensim2020/Desktop/walking_exp_matlab/subject03_walking04_straight_01.trc	
DataRate	CameraRate	NumFrames	NumMarkers	Units	OrigDataRate	OrigDataStartFrame	OrigNumFrames	
100.00	100.00	8	51	mm	100.00	934	265	
Frame#	Time	LFHD			RFHD			LBHD			RBHD			C7			T10			CLAV			STRN			RBAK			LSHO			LUPA			LELB			LFRM			LWRA			LWRB			LFIN			RSHO			RUPA			RELB			RFRM			RWRA			RWRB			RFIN			LASI			RASI			LPSI			RPSI			LTHI			LKNE			LTIB			LANK			LHEE			LTOE			RTHI			RKNE			RTIB			RANK			RHEE			RTOE			*39			*40			*41			*42			*43			*44			*45			*46			*47			*48			*49			*50			
		X1	Y1	Z1	X2	Y2	Z2	X3	Y3	Z3	X4	Y4	Z4	X5	Y5	Z5	X6	Y6	Z6	X7	Y7	Z7	X8	Y8	Z8	X9	Y9	Z9	X10	Y10	Z10	X11	Y11	Z11	X12	Y12	Z12	X13	Y13	Z13	X14	Y14	Z14	X15	Y15	Z15	X16	Y16	Z16	X17	Y17	Z17	X18	Y18	Z18	X19	Y19	Z19	X20	Y20	Z20	X21	Y21	Z21	X22	Y22	Z22	X23	Y23	Z23	X24	Y24	Z24	X25	Y25	Z25	X26	Y26	Z26	X27	Y27	Z27	X28	Y28	Z28	X29	Y29	Z29	X30	Y30	Z30	X31	Y31	Z31	X32	Y32	Z32	X33	Y33	Z33	X34	Y34	Z34	X35	Y35	Z35	X36	Y36	Z36	X37	Y37	Z37	X38	Y38	Z38	X39	Y39	Z39	X40	Y40	Z40	X41	Y41	Z41	X42	Y42	Z42	X43	Y43	Z43	X44	Y44	Z44	X45	Y45	Z45	X46	Y46	Z46	X47	Y47	Z47	X48	Y48	Z48	X49	Y49	Z49	X50	Y50	Z50	X51	Y51	Z51	

199	1.980	-1274.58984	480.14746	1621.10083	-1144.60803	451.30316	1630.06580	-1294.39587	356.27484	1569.44739	-1165.85986	333.07352	1578.54944	-1232.48621	322.75848	1416.80627	-1228.55884	288.63422	1103.26355	-1215.07556	446.17551	1343.74805	-1212.36548	489.36935	1177.61060	-1134.82532	262.71921	1244.00671	-1376.48962	419.21365	1376.79944	-1447.14539	406.22400	1177.75073	-1459.15015	404.32425	1054.56665	-1456.59033	420.86273	924.51056	-1424.71631	426.87134	805.82513	-1478.49695	410.26764	812.53741	-1466.00525	413.14014	727.85681	-1062.06641	385.20645	1370.10095	-992.69763	402.46820	1147.44617	-982.77667	429.04163	1037.22876	-984.37842	464.44867	904.89978	-1022.09247	510.59000	816.43158	-979.64679	478.36005	805.85669	-990.58386	509.28683	738.10962	-1328.52905	467.21274	943.22345	-1092.20349	441.30942	933.38843	-1296.38123	300.43423	966.60492	-1147.37048	286.52948	963.78931	-1376.79956	426.91498	643.07617	-1333.96802	443.97943	465.98386	-1339.24878	409.97379	273.95444	-1299.21570	408.29282	63.92020	-1265.59558	368.01105	29.05713	-1273.27368	562.07617	29.58587	-1055.24646	406.97800	632.89148	-1075.60925	447.35233	457.02420	-1079.61072	302.13004	335.11066	-1128.37036	137.35718	198.99159	-1185.65491	89.07449	208.96394	-1137.31677	193.68721	68.15208	-1244.54346	385.10547	1680.26843																																	 
200	1.990	-1274.08276	489.80334	1621.39282	-1144.07971	460.69183	1630.26208	-1294.25635	365.85223	1570.20435	-1165.73840	342.39398	1579.07751	-1232.72913	331.88876	1417.26062	-1229.41602	297.63199	1103.71460	-1214.93469	455.15857	1344.19360	-1212.41772	498.28867	1178.07300	-1136.01929	271.19879	1244.24878	-1376.47058	428.88818	1377.10291	-1447.38989	419.19421	1178.10693	-1459.90295	419.49252	1055.01257	-1457.24634	437.98410	925.23438	-1426.48779	446.65002	807.14825	-1479.52124	429.75754	813.10425	-1467.43445	434.18436	728.30707	-1061.92822	393.26443	1370.10986	-992.89630	409.11298	1147.21289	-982.76660	435.00638	1036.75745	-983.82703	468.61572	903.90527	-1020.87744	513.77515	814.67059	-978.72260	480.98557	804.63263	-989.36273	511.06589	736.49109	-1329.47534	476.00934	943.53253	-1093.01099	450.49030	934.44409	-1296.97253	309.47318	966.89929	-1147.91858	295.28094	964.40546	-1376.12598	434.50244	643.14063	-1333.65552	449.30856	465.87225	-1339.03210	413.01312	274.03101	-1298.89429	408.60336	64.05563	-1265.43384	368.10080	29.11677	-1273.25391	562.21826	29.74729	-1055.62683	421.55627	634.17706	-1075.83508	465.83310	459.34821	-1080.25085	322.08862	336.12177	-1129.20056	159.06592	197.94312	-1186.30457	110.15524	206.46796	-1137.31384	219.26080	68.84805	-1247.53064	394.59338	1678.78882																																	 
201	2.000	-1273.41577	499.46683	1621.64722	-1143.52161	470.08810	1630.33069	-1294.02441	375.37335	1570.84509	-1165.55884	351.61011	1579.58325	-1233.10974	340.95590	1417.72168	-1230.31689	306.55933	1104.19446	-1214.78198	464.05344	1344.57092	-1212.48706	507.15295	1178.45154	-1137.08752	279.61771	1244.53064	-1376.40601	438.45062	1377.47327	-1447.58179	432.13046	1178.62952	-1460.50256	434.75696	1055.66284	-1457.77686	455.29880	926.22058	-1427.03333	465.32236	808.36560	-1480.36047	449.41623	813.97882	-1468.70190	456.40948	729.58917	-1061.90991	401.15533	1370.16418	-993.01880	415.67847	1147.02161	-982.66278	440.88196	1036.37842	-983.27167	472.77377	903.07880	-1019.62219	516.83508	813.08044	-977.71051	483.67691	803.64893	-987.83203	512.78424	735.04700	-1330.41028	484.78152	943.84271	-1093.97400	459.76334	935.69635	-1297.50183	318.43262	967.09943	-1148.48816	304.38461	965.01794	-1375.56506	442.08719	643.06042	-1333.26050	454.68417	465.69162	-1338.84778	416.08963	274.10437	-1298.54358	408.98138	64.26919	-1265.72864	367.67999	29.55283	-1273.10986	562.21454	29.64428	-1056.07800	436.30579	635.24982	-1076.18994	483.88428	461.70038	-1081.11072	342.31058	336.53033	-1129.94629	181.58247	195.69679	-1186.90662	132.03305	202.69084	-1138.50830	245.24799	68.38702	-1243.71265	404.80902	1681.24146																																	 
202	2.010	-1272.67859	509.14395	1621.81763	-1142.84619	479.45929	1630.28528	-1293.77209	384.93408	1571.49170	-1165.34644	360.83078	1580.01367	-1233.41638	349.90982	1418.07666	-1231.03711	315.38913	1104.57715	-1214.61121	472.90244	1344.84302	-1212.59900	515.90009	1178.75989	-1138.07434	288.00583	1244.76672	-1376.30249	447.95663	1377.97632	-1447.75098	444.97937	1179.36499	-1460.97339	450.03586	1056.62952	-1458.24780	472.94183	927.80609	-1427.53821	484.22714	809.90070	-1481.18860	469.38660	815.45551	-1469.53796	478.30911	731.01624	-1061.95410	409.13663	1370.28479	-993.06396	422.02121	1146.90149	-982.53149	446.69574	1036.11133	-982.59033	476.82770	902.39594	-1018.43091	519.97119	811.69952	-976.62079	486.48157	802.86383	-986.36151	514.80176	733.85339	-1331.64636	493.62442	944.14484	-1094.99060	469.27982	937.09418	-1297.89563	327.35757	967.21997	-1149.02490	313.62817	965.46783	-1375.16455	449.84839	642.91711	-1332.99268	460.00864	465.41467	-1338.76282	419.10886	274.13840	-1298.34595	409.23257	64.46927	-1265.42346	367.93051	29.40003	-1272.98523	562.28717	29.50683	-1056.40637	451.05463	636.42322	-1076.62683	501.71619	464.11017	-1082.03113	362.63266	336.22479	-1130.78650	204.61079	192.27098	-1187.58984	154.52313	197.75743	-1139.56409	272.39197	67.35742	-1243.82751	414.34769	1679.62500																																	 
203	2.020	-1271.83899	518.80731	1621.92126	-1142.02905	488.79886	1630.08521	-1293.44250	394.48291	1572.15222	-1165.05737	370.01697	1580.31726	-1233.69946	358.77292	1418.35303	-1231.75684	324.20071	1104.87378	-1214.48608	481.70129	1345.04712	-1212.78210	524.57544	1178.96545	-1139.02576	296.41382	1244.91919	-1376.18188	457.40994	1378.57373	-1447.93835	457.66223	1180.34155	-1461.24658	465.33829	1057.78540	-1458.34900	490.25897	929.18073	-1427.31726	502.19165	811.34479	-1481.75513	489.33621	817.14008	-1470.81775	501.42758	733.65790	-1062.01758	417.08026	1370.25208	-993.07202	428.24271	1146.78796	-982.30054	452.36060	1035.90662	-981.88287	481.02631	901.88361	-1017.18488	523.14398	810.47681	-975.50909	489.36951	802.22198	-984.81201	516.95770	732.87274	-1332.53210	502.36896	944.30328	-1095.89404	478.38571	938.18250	-1298.27820	336.23795	967.19952	-1149.34338	322.69211	965.99066	-1374.97998	457.23721	642.59106	-1332.81519	465.24811	465.14523	-1338.76904	422.09949	274.18076	-1298.29199	409.44003	64.53223	-1265.31555	367.91846	29.64170	-1272.89880	562.56055	29.67387	-1057.11829	466.21585	637.96686	-1077.21545	519.18329	466.52328	-1082.84424	383.07404	335.23572	-1131.70361	228.25647	187.81833	-1188.26758	177.67900	191.65034	-1140.87439	300.75607	65.93285	-1242.31897	424.47745	1681.94775																																	 
204	2.030	-1270.84814	528.47467	1621.98657	-1141.07214	498.09000	1629.79321	-1293.03247	404.01926	1572.74219	-1164.69836	379.21378	1580.57715	-1233.98755	367.57425	1418.56006	-1232.37964	332.98975	1105.06445	-1214.36145	490.43509	1345.18359	-1212.94373	533.23297	1179.12744	-1139.88586	304.77557	1245.11243	-1375.95313	466.76187	1379.18652	-1448.10400	470.06723	1181.39294	-1461.63464	480.51178	1059.18750	-1458.53552	507.91629	931.33221	-1427.55566	521.24359	813.41650	-1482.29236	509.37897	819.17010	-1471.46753	523.72601	736.04797	-1062.06714	424.88834	1370.38733	-992.98462	434.47284	1146.71008	-981.97089	457.93832	1035.73584	-981.07202	485.20865	901.42371	-1015.88892	526.42853	809.41876	-974.32007	492.38974	801.67365	-983.25415	519.23218	731.94592	-1333.32605	511.50308	944.64417	-1096.71313	487.47900	939.10083	-1298.60730	345.05615	967.13843	-1149.63672	331.74170	966.35242	-1374.96912	464.80847	642.24768	-1332.78259	470.55704	464.87253	-1338.76331	425.18427	274.22211	-1298.17822	409.68436	64.64874	-1265.13977	367.90363	29.90622	-1272.84167	562.53589	29.61599	-1057.17285	479.64081	639.85260	-1077.79407	536.23706	468.92212	-1083.47375	403.67850	333.68640	-1132.74475	252.68279	182.55194	-1189.05896	201.58835	184.32332	-1142.34021	329.82321	63.64000	-1241.87610	433.91620	1680.49231																																	 
205	2.040	-1269.72144	538.14874	1621.93579	-1140.10132	507.44904	1629.42102	-1292.57825	413.58273	1573.37878	-1164.29004	388.37991	1580.73010	-1234.20618	376.34357	1418.71094	-1232.92773	341.73792	1105.19763	-1214.16248	499.08328	1345.25781	-1213.19604	541.90051	1179.21118	-1140.63550	313.18152	1245.21985	-1375.67932	476.02844	1379.82678	-1448.30994	482.48880	1182.67322	-1461.38416	495.52527	1060.61328	-1458.35962	525.18628	933.20691	-1428.51111	541.83881	816.10889	-1482.61768	529.56305	821.55615	-1472.48267	546.79547	739.39832	-1062.12207	432.88062	1370.37366	-992.84558	440.52014	1146.60547	-981.57556	463.42358	1035.55835	-980.23456	489.38715	900.99506	-1014.62048	530.08337	808.68396	-973.14093	495.66510	801.20343	-981.73322	521.76337	731.12061	-1333.53564	519.68494	944.63440	-1097.43408	496.60806	939.84515	-1298.94800	353.91254	966.89349	-1149.90234	340.71054	966.59210	-1375.33289	471.73959	641.74664	-1332.73804	475.76422	464.40002	-1338.78210	428.28195	274.20874	-1298.09692	410.10071	64.90430	-1265.04053	367.91251	29.96102	-1272.67224	562.63519	29.49409	-1057.46655	494.38547	641.28424	-1078.48914	552.91278	471.33078	-1084.09766	424.22238	331.86954	-1133.85242	277.75845	176.23605	-1189.94373	226.20924	176.14749	-1143.82202	359.98859	61.25747	-1240.69788	443.76260	1680.81274																																	 
206	2.050	-1268.57678	547.82349	1621.83264	-1138.97888	516.72052	1628.90381	-1292.02954	423.14066	1573.90027	-1163.82788	397.52518	1580.84949	-1234.35559	385.09964	1418.76990	-1233.39795	350.45905	1105.19006	-1214.02368	507.79434	1345.25366	-1213.40674	550.52045	1179.21643	-1141.35583	321.57648	1245.18994	-1375.36389	485.23883	1380.41931	-1448.66211	494.68231	1184.02112	-1461.74268	510.36725	1062.34473	-1458.66431	542.84833	935.75690	-1428.22717	560.55066	818.56360	-1482.78699	549.63605	824.06445	-1472.78821	569.13763	742.44983	-1062.21826	440.80804	1370.17468	-992.58112	446.68491	1146.44861	-981.06055	468.89148	1035.34509	-979.30450	493.71042	900.56061	-1013.28772	533.36719	807.53314	-971.89056	498.95087	800.71643	-980.31250	524.49310	730.33185	-1334.17810	528.43390	944.46887	-1097.99634	505.63199	940.24500	-1299.15527	362.62540	966.72565	-1150.13574	349.66721	966.69177	-1375.48230	478.56799	641.33832	-1332.75684	480.89130	463.95496	-1338.72644	431.36621	274.23425	-1297.96106	410.33112	65.09525	-1264.94202	367.88574	30.61292	-1272.55078	562.77521	29.47185	-1057.19824	507.03345	642.82178	-1079.30908	568.99390	473.66132	-1084.92395	444.85483	329.82248	-1134.97937	303.37079	169.10397	-1191.08459	251.57643	167.15012	-1144.99915	391.17859	58.82382	-1239.42102	453.62256	1681.04431																																	 
